<svg xmlns="http://www.w3.org/2000/svg" width="26" height="26" viewBox="0 0 26 26">
    <path fill="#FFF" fill-rule="evenodd" d="M13.126 23.337c-2.158 0-4.169-.642-5.847-1.744L3.195 22.89l1.328-3.916C3.251 17.237 2.5 15.1 2.5 12.792c0-.345.019-.685.051-1.022.52-5.337 5.064-9.523 10.577-9.523 5.58 0 10.167 4.291 10.592 9.721.021.272.036.546.036.824 0 5.815-4.769 10.545-10.629 10.545M25.76 12.474C25.588 5.694 20.001.25 13.127.25 6.332.25.792 5.57.5 12.24c-.008.184-.015.368-.015.554 0 2.369.663 4.584 1.815 6.475L.018 26l6.999-2.224c1.812.994 3.894 1.56 6.11 1.56 6.982 0 12.64-5.615 12.64-12.542 0-.108-.004-.213-.007-.32"/>
</svg>
