<svg width="42" height="42" viewBox="0 0 42 42" fill="none" xmlns="http://www.w3.org/2000/svg">
<circle cx="21" cy="21" r="20" stroke="#0FBDDF" stroke-width="2"/>
<path d="M10.5 20C9.94772 20 9.5 20.4477 9.5 21C9.5 21.5523 9.94772 22 10.5 22V20ZM32.2071 21.7071C32.5976 21.3166 32.5976 20.6834 32.2071 20.2929L25.8431 13.9289C25.4526 13.5384 24.8195 13.5384 24.4289 13.9289C24.0384 14.3195 24.0384 14.9526 24.4289 15.3431L30.0858 21L24.4289 26.6569C24.0384 27.0474 24.0384 27.6805 24.4289 28.0711C24.8195 28.4616 25.4526 28.4616 25.8431 28.0711L32.2071 21.7071ZM10.5 22H31.5V20H10.5V22Z" fill="#0FBDDF"/>
</svg>
