<svg id="Capa_1" data-name="Capa 1" xmlns="http://www.w3.org/2000/svg" viewBox="0 0 89 84"><defs><style>.cls-1{fill:#ee2124;}.cls-2{fill:none;}</style></defs><path class="cls-1" d="M73.85,12.64A41.52,41.52,0,0,0,15.13,71.36,41.52,41.52,0,0,0,73.85,12.64ZM16,67.9A38.5,38.5,0,0,1,70.39,13.52l.23.21L55,29.35l-2.43-2.43,5.29-5.29a1.51,1.51,0,0,0,0-2.14,1.52,1.52,0,0,0-2.14,0l-5.29,5.29-.86-.86a5.81,5.81,0,0,0-4.13-1.71H33.27l-3.85,0-3.67-2.8a1.43,1.43,0,0,0-.91-.31,1.48,1.48,0,0,0-1.2.59,1.51,1.51,0,0,0,.28,2.12L28,24.87a1.47,1.47,0,0,0,.9.31l4.36.05h12.2a2.77,2.77,0,0,1,2,.83l5.43,5.42L48.7,35.65l-4.55-3.56a1.55,1.55,0,0,0-1-.33l-6.71.38a1.58,1.58,0,0,0-1.11.58l-12,11.89L21,38.74a1.43,1.43,0,0,0-.47-.64l-4.74-3.76a1.51,1.51,0,0,0-.94-.32,1.48,1.48,0,0,0-1.18.57,1.51,1.51,0,0,0,.24,2.12l4.43,3.5,3.18,8.18v.06a5.65,5.65,0,0,0,5.34,6v-3a2.64,2.64,0,0,1-2.34-2.63,2.61,2.61,0,0,1,.77-1.86L37.18,35.13l5.54-.32,3.83,3L16.22,68.13ZM55,33.61l.2.29a2.81,2.81,0,0,1-3.91,3.92l-.3-.21ZM71.71,69.22a38.54,38.54,0,0,1-53.12,1.26l-.23-.21L29.64,59l.2.15A5.67,5.67,0,0,0,33,60.2h.3v.1a6,6,0,0,0,1.27,3.84,5.67,5.67,0,0,0,5.27,2,5.89,5.89,0,0,0,3.25-1.73L45.53,62l1.88,1.88a4.24,4.24,0,0,0,3.09,1.23h0a4.4,4.4,0,0,0,3.06-1.32,4.45,4.45,0,0,0,1.23-2.28l.05-.24h.24a4.91,4.91,0,0,0,4.12-2.37,5.2,5.2,0,0,0,.71-2.37V56.4h.26a5.36,5.36,0,0,0,4.62-3.08,5.7,5.7,0,0,0,.5-2.37v-.18h.16a5.5,5.5,0,0,0,3.18-.95,5.4,5.4,0,0,0,2.07-6,5.08,5.08,0,0,0-.85-1.63l-.09-.12,1.63-5.64,4-4a1.51,1.51,0,0,0-2.14-2.14L69,34.57a1.47,1.47,0,0,0-.38.65l-1.26,4.37-.46-.46A5.09,5.09,0,0,0,65,37.9a5.42,5.42,0,0,0-6.27,1.86,5.63,5.63,0,0,0-1,3.32v.12h-.1A5.59,5.59,0,0,0,54,44.44a5.34,5.34,0,0,0-1.93,4.12c0,.1,0,.21,0,.38l0,.26-.26,0a4.92,4.92,0,0,0-3,1.81,5.15,5.15,0,0,0-1,3.61v0l-.23.07a4.52,4.52,0,0,0-3.23,4v.11l-3.57,3.57a2.66,2.66,0,0,1-3.74,0A2.64,2.64,0,0,1,37,58.83l0-.07,7.44-7.44-2.13-2.13L35,56.41a2.62,2.62,0,0,1-2.82.6l-.43-.16L48.89,39.74l.08.07a6,6,0,0,0,3,1.47,5.81,5.81,0,0,0,5.53-2.17,6,6,0,0,0-.33-7.57l0-.05L72.76,15.87l.21.23a38.48,38.48,0,0,1-1.26,53.12ZM61.6,49.39a2.32,2.32,0,0,1,0,3.3,2.29,2.29,0,0,1-1.65.69,2.35,2.35,0,0,1-1.38-.45l-2.31-2.31c-.13-.13-.26-.25-.45-.41a2.34,2.34,0,0,1,3.31-3.31Zm-.84-6.47a2.31,2.31,0,0,1,.69-1.65,2.32,2.32,0,0,1,3.3,0l2.49,2.48a2.34,2.34,0,0,1-3.31,3.31l-2.48-2.49A2.33,2.33,0,0,1,60.76,42.92Zm-4.6,11.91.32.3a1.87,1.87,0,0,1,.42,1.2A1.91,1.91,0,0,1,55,58.25a1.91,1.91,0,0,1-1.08-.35,2,2,0,0,0-.24-.26l-1.79-1.8c-.16-.16-.33-.29-.55-.47a1.92,1.92,0,0,1,2.56-2.82Zm-4.67,5s.23.22.23.22l0,.05a1.24,1.24,0,0,1,.12.57,1.49,1.49,0,0,1-.43,1,1.46,1.46,0,0,1-1,.43,1.23,1.23,0,0,1-.87-.34L47.75,60a1.18,1.18,0,0,1-.34-.89,1.4,1.4,0,0,1,.43-1h0a1.47,1.47,0,0,1,1-.44,1.29,1.29,0,0,1,.49.1l0,0Z"/><rect class="cls-2" width="89" height="84"/></svg>