<svg id="Capa_1" data-name="Capa 1" xmlns="http://www.w3.org/2000/svg" viewBox="0 0 89 84"><defs><style>.cls-1{fill:#ee2124;fill-rule:evenodd;}.cls-2{fill:none;}</style></defs><path class="cls-1" d="M77.68,44.94,62.44,28.42a6.32,6.32,0,0,0-7.66-1.09,6,6,0,0,0-2.53,7.3l2.77,6a1.54,1.54,0,0,0,2,.74,1.49,1.49,0,0,0,.75-2l-2.72-5.86a3,3,0,0,1,1.29-3.6,3.17,3.17,0,0,1,3.82.55L75.42,47a2.93,2.93,0,0,1,.8,2V73A7.58,7.58,0,0,1,68.6,80.5H27.45a3,3,0,1,1,0-6H47.26a1.5,1.5,0,1,0,0-3H24.41a3,3,0,1,1,0-6H47.26a1.5,1.5,0,1,0,0-3H21.36a3,3,0,1,1,0-6h25.9a1.5,1.5,0,1,0,0-3H24.41a3,3,0,1,1,0-6h35a1.51,1.51,0,1,0,0-3h-35a6.06,6.06,0,0,0-6.1,6,5.92,5.92,0,0,0,1.05,3.36,5.94,5.94,0,0,0,0,11.29,5.92,5.92,0,0,0-1.05,3.36,6,6,0,0,0,4.09,5.64,5.92,5.92,0,0,0-1,3.37,6.05,6.05,0,0,0,6.09,6H68.6A10.59,10.59,0,0,0,79.26,73V49A6,6,0,0,0,77.68,44.94Z"/><path class="cls-1" d="M24.74,25.75a12.91,12.91,0,0,0-1.66-5.17,1.5,1.5,0,0,0-2.69,1.34c1.25,2.51,1.35,3.57,1.35,3.83a4.5,4.5,0,0,1-9,0c0-2,3.35-7.7,5.73-11.15A1.5,1.5,0,1,0,16,12.9c-1,1.51-6.26,9.25-6.26,12.85a7.5,7.5,0,0,0,15,0Z"/><path class="cls-1" d="M37.76,21.5a7.5,7.5,0,0,0,7.5-7.5,12.86,12.86,0,0,0-1.65-5.17,1.5,1.5,0,0,0-2.69,1.34c1.25,2.51,1.34,3.57,1.34,3.83a4.5,4.5,0,0,1-9,0c0-2,3.36-7.7,5.74-11.15a1.5,1.5,0,0,0-2.47-1.7C35.48,2.66,30.26,10.4,30.26,14A7.51,7.51,0,0,0,37.76,21.5Z"/><rect class="cls-2" width="89" height="84"/></svg>