<svg id="Capa_1" data-name="Capa 1" xmlns="http://www.w3.org/2000/svg" viewBox="0 0 117.99 84"><defs><style>.cls-1{fill:#ee2124;}.cls-2{fill:none;}</style></defs><path class="cls-1" d="M92.43,19.79a1.56,1.56,0,0,1,0-3.11h7.62L100.12,9a1.56,1.56,0,0,1,3.11,0v9.24a1.56,1.56,0,0,1-1.56,1.56Z"/><path class="cls-1" d="M35.23,83.5a1.56,1.56,0,1,1,0-3.12h9.42V72.52H4.11A3.39,3.39,0,0,1,.72,69.13V14.21a3.39,3.39,0,0,1,3.39-3.39h82a16.13,16.13,0,1,1,16.6,21.88V69.13a3.4,3.4,0,0,1-3.39,3.39H58.76v7.86h9.42a1.56,1.56,0,0,1,0,3.12Zm20.41-3.12V72.52H47.77v7.86ZM4.11,13.94a.28.28,0,0,0-.27.27V69.13a.28.28,0,0,0,.27.27H99.3a.28.28,0,0,0,.27-.27V32.7A16.23,16.23,0,0,1,85,16.64a15.83,15.83,0,0,1,.24-2.7Zm97-10.27a13,13,0,1,0,13,13A13,13,0,0,0,101.13,3.67Z"/><path class="cls-1" d="M44.87,52.22a2.31,2.31,0,0,1-1.14-.3,2.36,2.36,0,0,1-1.22-2.07V33.41a2.36,2.36,0,0,1,3.63-2l13,8.22a2.37,2.37,0,0,1,0,4l-13,8.22A2.38,2.38,0,0,1,44.87,52.22Zm.76-3.74,10.8-6.85-10.8-6.85Z"/><rect class="cls-2" width="117.99" height="84"/></svg>