<svg id="Capa_1" data-name="Capa 1" xmlns="http://www.w3.org/2000/svg" viewBox="0 0 122.96 84"><defs><style>.cls-1{fill:#ee2124;}.cls-2{fill:none;}</style></defs><path class="cls-1" d="M116.11,15.74H87.94V6.87A6.38,6.38,0,0,0,81.57.5H6.85A6.38,6.38,0,0,0,.48,6.87V52.55a6.38,6.38,0,0,0,6.37,6.37h7l7.73,8.81a1.51,1.51,0,0,0,1.16.53,1.54,1.54,0,0,0,1.16-.53l7.72-8.81h10V67.8A6.38,6.38,0,0,0,48,74.17H91.33L99.06,83a1.52,1.52,0,0,0,2.31,0l7.73-8.8h7a6.38,6.38,0,0,0,6.37-6.37V22.11A6.38,6.38,0,0,0,116.11,15.74Zm-73,40.1H30.94a1.51,1.51,0,0,0-1.16.53l-7,8-7-8a1.51,1.51,0,0,0-1.16-.53H6.85a3.28,3.28,0,0,1-3.28-3.29V6.87A3.29,3.29,0,0,1,6.85,3.58H81.57a3.3,3.3,0,0,1,3.29,3.29V52.55a3.29,3.29,0,0,1-3.29,3.29Zm76.27,12a3.29,3.29,0,0,1-3.29,3.28H108.4a1.53,1.53,0,0,0-1.16.53l-7,8-7-8A1.54,1.54,0,0,0,92,71.08H48a3.28,3.28,0,0,1-3.29-3.28V58.92h36.9a6.38,6.38,0,0,0,6.37-6.37V18.82h28.17a3.3,3.3,0,0,1,3.29,3.29Z"/><path class="cls-1" d="M24.49,20.42a7.78,7.78,0,1,0,7.78,7.78A7.79,7.79,0,0,0,24.49,20.42Zm0,12.48a4.7,4.7,0,1,1,4.7-4.7A4.71,4.71,0,0,1,24.49,32.9Z"/><path class="cls-1" d="M44.21,20.42A7.78,7.78,0,1,0,52,28.2,7.79,7.79,0,0,0,44.21,20.42Zm0,12.48a4.7,4.7,0,1,1,4.7-4.7A4.71,4.71,0,0,1,44.21,32.9Z"/><path class="cls-1" d="M63.93,20.42a7.78,7.78,0,1,0,7.78,7.78A7.78,7.78,0,0,0,63.93,20.42Zm0,12.48a4.7,4.7,0,1,1,4.7-4.7A4.7,4.7,0,0,1,63.93,32.9Z"/><rect class="cls-2" width="122.96" height="84"/></svg>