<svg id="Capa_1" data-name="Capa 1" xmlns="http://www.w3.org/2000/svg" viewBox="0 0 89 84"><defs><style>.cls-1{fill:#ee2124;}.cls-2{fill:none;}</style></defs><path class="cls-1" d="M50.68,42.33a11.85,11.85,0,0,0,10.1,0,1.46,1.46,0,1,0-1.32-2.61,8.94,8.94,0,0,1-7.47,0,1.46,1.46,0,1,0-1.31,2.61Z"/><path class="cls-1" d="M18.62,59.43A1.46,1.46,0,0,0,17,58.12l-9.76,1A1.46,1.46,0,0,0,7.39,62h.15l9.76-1A1.46,1.46,0,0,0,18.62,59.43Z"/><path class="cls-1" d="M20.33,66.58a1.46,1.46,0,0,0-2-.41L9.51,72a1.46,1.46,0,0,0,.82,2.68,1.52,1.52,0,0,0,.81-.24l8.78-5.86A1.46,1.46,0,0,0,20.33,66.58Z"/><path class="cls-1" d="M22,75.14,16.12,81a1.47,1.47,0,0,0,1,2.5,1.43,1.43,0,0,0,1-.43l5.86-5.86a1.45,1.45,0,0,0,0-2.07A1.47,1.47,0,0,0,22,75.14Z"/><path class="cls-1" d="M81.75,59.1l-9.76-1A1.46,1.46,0,1,0,71.7,61l9.76,1h.15a1.46,1.46,0,0,0,.14-2.92Z"/><path class="cls-1" d="M67,75.14a1.47,1.47,0,0,0-2.07,0,1.45,1.45,0,0,0,0,2.07l5.86,5.86a1.43,1.43,0,0,0,1,.43,1.47,1.47,0,0,0,1-2.5Z"/><path class="cls-1" d="M79.49,72,70.7,66.17a1.46,1.46,0,0,0-1.62,2.44l8.78,5.86a1.53,1.53,0,0,0,.82.24A1.46,1.46,0,0,0,79.49,72Z"/><path class="cls-1" d="M28.22,42.33a11.85,11.85,0,0,0,10.1,0A1.46,1.46,0,1,0,37,39.72a8.94,8.94,0,0,1-7.47,0,1.46,1.46,0,1,0-1.32,2.61Z"/><path class="cls-1" d="M64.82,73.05a1.46,1.46,0,0,0,.56-1.8c-.38-.89-1-2.4-1.91-4.29A22,22,0,0,0,67.2,55.37a3.85,3.85,0,0,0,2.25-.31c2.89-1.3,4.83-6.11,4.83-12,0-3.26-.62-5.18-2-6L72.17,37c.8-2.88,1.14-7.67,1.14-15S64.86.5,44.5.5,15.69,14.47,15.69,22,16,34.11,16.83,37l-.15.07c-1.34.85-2,2.77-2,6,0,5.86,1.94,10.67,4.83,12a3.85,3.85,0,0,0,2.25.31A22.42,22.42,0,0,0,25,66.1c-1.08,2.28-1.88,4.13-2.31,5.15a1.46,1.46,0,0,0,.55,1.8c.26.17,5.8,3.7,10.1,4.46A1.44,1.44,0,0,0,34.1,79a20.21,20.21,0,0,0,6.25,1.41,1.47,1.47,0,0,0,1.17.66h.24l.67,0,1.24,0h1.6l1.26,0,.71,0h.24a1.46,1.46,0,0,0,1.17-.66A20.21,20.21,0,0,0,54.9,79a1.45,1.45,0,0,0,.78-1.66A37.41,37.41,0,0,0,64.82,73.05ZM44.5,3.43C62.56,3.43,70.38,15.69,70.38,22c0,10.15-.73,13.77-1.25,15.06l-.42.19h0c-1-1.46-1.91-6.08-2.44-8.71-1.17-5.69-1.94-9.45-4.47-9.45a17.92,17.92,0,0,0-3.36.38c-2.19.39-5.5,1-13.92,1h-.12a36.18,36.18,0,0,1-10.79-1.84,18.51,18.51,0,0,0-4.91-1c-3.23,0-4.4,5-5.89,11.34-.61,2.64-1.59,6.81-2.49,8.23h0a3.63,3.63,0,0,0-.43-.19c-.51-1.3-1.24-4.92-1.24-15.06C18.62,15.69,26.44,3.43,44.5,3.43ZM24.66,53.07A1.47,1.47,0,0,0,22.22,52c-.8.72-1.27.51-1.47.42-1.52-.69-3.1-4.35-3.1-9.3a7.72,7.72,0,0,1,.48-3.41,2.48,2.48,0,0,0,1.91.86c3.05,0,4.17-4.81,5.6-10.9.69-3,2-8.5,3.08-9.08a16.83,16.83,0,0,1,4,.89,38.86,38.86,0,0,0,11.75,2h.14a75.39,75.39,0,0,0,14.29-1.08A15.89,15.89,0,0,1,61.45,22c.66,1,1.41,4.62,1.92,7.1,1.25,6.14,2.34,11.45,5.59,11.45a2.5,2.5,0,0,0,1.9-.85,7.36,7.36,0,0,1,.49,3.4c0,4.95-1.58,8.61-3.1,9.3-.2.09-.66.3-1.47-.42a1.47,1.47,0,0,0-2.44,1.1c0,5.28-1.15,8.58-2.36,10.76-4.41-9.06-11.9-22.32-18-22.32-5.85,0-13,12.33-17.49,21.34A22.67,22.67,0,0,1,24.66,53.07ZM54.87,74.48,50.09,58.19a1.46,1.46,0,1,0-2.81.82l4.91,16.76a1.37,1.37,0,0,0,.07,1,29.72,29.72,0,0,1-7.76.87,29.62,29.62,0,0,1-8-.92L41.72,59a1.46,1.46,0,1,0-2.81-.82L34.08,74.65c-2.51-.33-6.15-2.19-8.24-3.42,5-11.5,13.65-26.79,18.17-26.79S57.15,59.73,62.18,71.23A31.32,31.32,0,0,1,54.87,74.48Z"/><rect class="cls-2" width="89" height="84"/></svg>