<svg id="Capa_1" data-name="Capa 1" xmlns="http://www.w3.org/2000/svg" viewBox="0 0 92.38 84"><defs><style>.cls-1{fill:#ee2124;}.cls-2{fill:none;}</style></defs><path class="cls-1" d="M27.88,50.55V36.6H42.94V50.55Zm2.89-2.89H40V39.49H30.77Z"/><polygon class="cls-1" points="27.88 32.86 27.88 18.9 37.96 18.9 37.96 21.8 30.77 21.8 30.77 29.96 35.78 29.96 31.77 25.95 33.82 23.9 35.88 25.96 41.36 19.57 43.56 21.45 36.27 29.96 40.04 29.96 40.04 27.2 42.94 27.2 42.94 32.86 27.88 32.86"/><rect class="cls-1" x="47.23" y="20.01" width="21.13" height="2.9"/><rect class="cls-1" x="47.23" y="24.43" width="14.5" height="2.9"/><rect class="cls-1" x="47.23" y="28.86" width="14.5" height="2.9"/><rect class="cls-1" x="47.23" y="37.7" width="16.39" height="2.9"/><rect class="cls-1" x="47.23" y="42.13" width="18.59" height="2.9"/><rect class="cls-1" x="47.23" y="46.55" width="13.42" height="2.9"/><path class="cls-1" d="M19,83.5a1.56,1.56,0,1,1,0-3.12H36.14V69H11A10.38,10.38,0,0,1,.6,58.63V10.86A10.38,10.38,0,0,1,11,.5H81.42A10.37,10.37,0,0,1,91.78,10.86V58.63A10.38,10.38,0,0,1,81.42,69H56.28V80.38H73.39a1.56,1.56,0,0,1,0,3.12Zm20.25-3.12H53.16V69H39.25ZM11,3.62a7.25,7.25,0,0,0-7.25,7.24V58.63A7.26,7.26,0,0,0,11,65.88H81.42a7.25,7.25,0,0,0,7.24-7.25V10.86a7.25,7.25,0,0,0-7.24-7.24Z"/><rect class="cls-2" width="92.38" height="84"/></svg>