<svg id="Capa_1" data-name="Capa 1" xmlns="http://www.w3.org/2000/svg" viewBox="0 0 72.38 84"><defs><style>.cls-1{fill:#ee2124;}.cls-2{fill:none;}</style></defs><path class="cls-1" d="M15.77,30.7a7.23,7.23,0,1,0-7.23-7.23A7.24,7.24,0,0,0,15.77,30.7Zm0-11.43a4.2,4.2,0,1,1-4.2,4.2A4.21,4.21,0,0,1,15.77,19.27Z"/><path class="cls-1" d="M23.79,32.76h-16A7.24,7.24,0,0,0,.51,40V54.65A4.33,4.33,0,0,0,4.82,59H6.18V82A1.52,1.52,0,0,0,7.69,83.5H23.84A1.52,1.52,0,0,0,25.36,82V59h1.35A4.33,4.33,0,0,0,31,54.65V40A7.24,7.24,0,0,0,23.79,32.76ZM28,54.62a1.32,1.32,0,0,1-2.64,0V44.34a1.52,1.52,0,0,0-1.52-1.52h0a1.52,1.52,0,0,0-1.51,1.52V80.47h-5V62.21a1.52,1.52,0,0,0-1.51-1.52h0a1.52,1.52,0,0,0-1.52,1.52V80.47h-5V44.34a1.52,1.52,0,0,0-1.52-1.52h0a1.51,1.51,0,0,0-1.51,1.52V54.62a1.32,1.32,0,1,1-2.64,0V40a4.21,4.21,0,0,1,4.21-4.21h16A4.22,4.22,0,0,1,28,40Z"/><path class="cls-1" d="M49.38,23.47a7.23,7.23,0,1,0,7.23-7.23A7.24,7.24,0,0,0,49.38,23.47Zm11.43,0a4.2,4.2,0,1,1-4.2-4.2A4.2,4.2,0,0,1,60.81,23.47Z"/><path class="cls-1" d="M64.63,32.76h-16A7.24,7.24,0,0,0,41.35,40V54.65A4.33,4.33,0,0,0,45.67,59H47V82a1.52,1.52,0,0,0,1.51,1.51H64.69A1.51,1.51,0,0,0,66.2,82V59h1.36a4.33,4.33,0,0,0,4.31-4.32V40A7.24,7.24,0,0,0,64.63,32.76Zm4.21,23.18H66.2V44.34a1.51,1.51,0,0,0-1.51-1.52h0a1.52,1.52,0,0,0-1.52,1.52V80.47h-5V62.21a1.52,1.52,0,0,0-1.52-1.52h0a1.52,1.52,0,0,0-1.51,1.52V80.47H50.05V44.34a1.52,1.52,0,1,0-3,0v11.6H44.38V40a4.21,4.21,0,0,1,4.21-4.21h16A4.21,4.21,0,0,1,68.84,40Z"/><path class="cls-1" d="M19.2,14.82a1.52,1.52,0,0,0,2.27-.15,1.59,1.59,0,0,0-.2-2.07L18.06,9.39h4.48a1.52,1.52,0,0,0,0-3H18.06l3.28-3.28A1.5,1.5,0,0,0,21.78,2,1.54,1.54,0,0,0,21.34.94,1.54,1.54,0,0,0,20.27.5,1.5,1.5,0,0,0,19.2.94L13.72,6.42a2.06,2.06,0,0,0,0,2.92Z"/><path class="cls-1" d="M49.84,9.39h4.48L51,12.67a1.52,1.52,0,0,0,1.07,2.59,1.5,1.5,0,0,0,1.07-.44l5.48-5.48a2.06,2.06,0,0,0,0-2.92L53.18.94A1.5,1.5,0,0,0,52.11.5,1.54,1.54,0,0,0,51,.94,1.54,1.54,0,0,0,50.6,2,1.5,1.5,0,0,0,51,3.08l3.28,3.28H49.84a1.52,1.52,0,0,0,0,3Z"/><polygon class="cls-1" points="27.17 3.62 27.57 5.42 29.35 4.58 29.35 11.92 31.63 11.92 31.63 2.43 29.72 2.43 27.17 3.62"/><path class="cls-1" d="M42.31,6.5c.43,0,.95.27.95,1.52v3.9h2.29V7.7c0-2-.89-3.12-2.45-3.12a2.66,2.66,0,0,0-1.38.36,3.75,3.75,0,0,0-.6.47l-.24.25-.21-.27a2.14,2.14,0,0,0-1.75-.81,2.55,2.55,0,0,0-1.67.56l-.44.36-.08-.76h-2v.09c0,.61.06,1.35.06,2.23v4.86h2.3V7.75a1.26,1.26,0,0,1,.08-.52,1,1,0,0,1,.93-.73c.34,0,.92.18.92,1.4v4h2.29V7.73a1.74,1.74,0,0,1,.08-.53A1,1,0,0,1,42.31,6.5Z"/><rect class="cls-2" width="72.38" height="84"/></svg>