<svg id="Capa_1" data-name="Capa 1" xmlns="http://www.w3.org/2000/svg" viewBox="0 0 89 84"><defs><style>.cls-1{fill:#ee2124;}.cls-2{fill:none;}</style></defs><path class="cls-1" d="M73.85,12.64A41.52,41.52,0,0,0,15.13,71.36,41.52,41.52,0,0,0,73.85,12.64ZM16,67.9A38.5,38.5,0,0,1,70.39,13.52l.23.21-5.73,5.73c-1.3-1.13-2.45-2-2.82-2.26l-.36-.26A31.12,31.12,0,0,0,25,18.65c-3.73,3-6.88,7.27-6.88,9.24s2.72,5.43,5.27,7.83a30.67,30.67,0,0,0,14.57,7.62l.3.07c.48.11,1.41.21,2.42.31L16.22,68.13ZM21.15,28l0-.09,0-.1c.85-2.65,9.2-13,23.34-13A27.42,27.42,0,0,1,60,19.43l.35.23a21.65,21.65,0,0,1,2.41,1.93l-7,7c0-.12,0-.24,0-.37a11,11,0,1,0-11,11h.37L43.5,40.85a45.76,45.76,0,0,1-4.61-.39l-.37-.08C27.64,38.06,21.83,30.06,21.15,28Zm23.61,8.25a8,8,0,1,1,8-8A8,8,0,0,1,44.76,36.23Zm3.09,4.54L65,23.68h0l.21.24a14.29,14.29,0,0,1,2.66,3.88l0,.1,0,.1c-.71,2.19-7.32,11-19.13,12.7l-.9.14.05-.06ZM58.13,78a39.45,39.45,0,0,1-5.4,1.59l-3.25-3h0L47.76,75a2.83,2.83,0,0,1-.81-2,2.86,2.86,0,0,1,.86-2l.07-.07a2.84,2.84,0,0,1,1.35-.68l.38,0,.31,0a2.84,2.84,0,0,1,1.9.84l6.75,6.79Zm8.19-4.29a38.6,38.6,0,0,1-4.6,2.72l-.19.1L54,68.9l-7-7a2.85,2.85,0,0,1-.84-2,3.58,3.58,0,0,1,0-.45,2.87,2.87,0,0,1,2.34-2.36,3.57,3.57,0,0,1,.46,0,2.92,2.92,0,0,1,1.72.58l16,15.92ZM73,67.91c-.41.45-.83.88-1.26,1.31-.79.79-1.63,1.56-2.48,2.28l-.21.17-19-19a2.85,2.85,0,0,1-.84-2,2.6,2.6,0,0,1,0-.46,2.81,2.81,0,0,1,2.36-2.34,2.28,2.28,0,0,1,.45,0,2.89,2.89,0,0,1,2,.84L73.16,67.7Zm5.15-7.14a39.69,39.69,0,0,1-2.84,4.36l-.21.27L59.26,49.57a2.86,2.86,0,0,1-.8-2.48,2.78,2.78,0,0,1,.79-1.56,2.84,2.84,0,0,1,2-.83,2.88,2.88,0,0,1,2,.83l14.94,15Zm1.54-3.05L65.43,43.4a5.89,5.89,0,0,0-8.32,0,5.76,5.76,0,0,0-1.39,2.21L55.6,46l-.33-.21a5.88,5.88,0,0,0-3.23-1,5.82,5.82,0,0,0-.93.07,5.91,5.91,0,0,0-3.23,1.65,5.77,5.77,0,0,0-1.63,3.19,4.61,4.61,0,0,0-.08,1,5.79,5.79,0,0,0,1,3.22l.21.32-.36.13a5.86,5.86,0,0,0-3.82,4.6,6,6,0,0,0-.08.94A5.81,5.81,0,0,0,44.81,64l3.36,3.36-.43.17a5.61,5.61,0,0,0-1.88,1.15,1.34,1.34,0,0,0-.21.2,5.88,5.88,0,0,0,0,8.3l3.3,3-.67.06a36.66,36.66,0,0,1-3.78.19,38.37,38.37,0,0,1-25.9-10l-.23-.21L44.6,44h.13A30.56,30.56,0,0,0,64,37.12c3.73-3,6.88-7.26,6.88-9.23,0-1.31-1.39-3.67-3.62-6.14l-.19-.22,5.67-5.66.21.23a38.55,38.55,0,0,1,6.86,41.21Z"/><rect class="cls-2" width="89" height="84"/></svg>